<svg xmlns="http://www.w3.org/2000/svg" xmlns:xlink="http://www.w3.org/1999/xlink" fill="none" version="1.1" width="41.69189453125" height="50" viewBox="0 0 41.69189453125 50"><path d="M8.1459274,0.024987521C3.6470561,0.024987018,5.0900758e-7,3.6720428,0,8.1709146L0,41.904049C0.027397333,46.383308,3.6664157,50,8.1459274,50L33.545727,50C38.044601,50.000004,41.691654,46.352947,41.691654,41.854073L41.691654,16.77911C41.669575,15.972087,41.33337,15.205552,40.754623,14.642679L27.12394,0.8995502C26.53657,0.32404804,25.747355,0.0011863711,24.925037,0L8.1459274,0.024987521Z" fill="#41CC8B" fill-opacity="1" style="mix-blend-mode:passthrough"/><path d="M40.7546367578125,14.64268881640625L27.1239534578125,0.89956056640625C26.6893688578125,0.47226774640625,26.1366843578125,0.18504584640625,25.5372464978125,0.07497289540625C25.3506097078125,0.044650944406250004,25.1800433020125,0.18580824640625,25.1749267578125,0.37482294640625L25.1749267578125,7.00900601640625C25.1749247217822,12.26688881640625,29.4372806578125,16.52924581640625,34.6951665578125,16.52924581640625L41.3043617578125,16.52924581640625C41.4966637578125,16.54001581640625,41.6491087578125,16.36928181640625,41.6167047578125,16.17942081640625C41.4882967578125,15.59294981640625,41.1881927578125,15.05798481640625,40.7546367578125,14.64268881640625Z" fill="#05B25F" fill-opacity="1" style="mix-blend-mode:passthrough"/><path d="M35.045003921875,15.00497382421875L41.116966921875,15.00497382421875C41.011255921875,14.87002082421875,40.889599921875,14.74836382421875,40.754646921875,14.64265482421875L27.123964011875,0.8995261742187499C26.992754071875,0.77968567421875,26.855120481875,0.66707532421875,26.711669921875,0.56219482421875L26.711669921875,6.67164042421875C26.711669921875,11.27401282421875,30.442630321875,15.00497382421875,35.045003921875,15.00497382421875Z" fill="#B0F9D7" fill-opacity="1" style="mix-blend-mode:passthrough"/><path d="M26.948172,34.842611C26.802246,34.951451,26.624264,35.008663,26.442248,35.005228C26.206614000000002,35.00802,25.980323,34.913185999999996,25.817076999999998,34.743235C25.647586,34.580422,25.552792,34.354882,25.555083,34.119869C25.551571,33.830376,25.694240999999998,33.558622,25.934524,33.397126L25.952590999999998,33.377254C26.290474,33.147781,26.604866,32.876754,26.893965,32.564167C27.183062,32.249775,27.436023,31.908279,27.654651,31.53968C27.871473,31.172888999999998,28.041321,30.7808,28.16057,30.365225000000002C28.28163,29.9478397,28.341255,29.5160017,28.341255,29.069707899999997C28.341255,28.166279799999998,28.11359,27.3387399,27.654648,26.590700599999998C27.215116000000002,25.862852099999998,26.629403,25.2340765,25.93452,24.744092000000002C25.692695999999998,24.5839829,25.54955,24.3113217,25.55508,24.021349C25.55508,23.7792299,25.643617,23.5696342,25.817076,23.3961768C26.128254,23.0698397,26.639693,23.0421312,26.984306,23.3329375C27.430595,23.64733,27.847981,24.0123153,28.23465,24.4278936C28.619509,24.8434696,28.951971,25.2951846,29.22842,25.7848425C29.506678,26.2726936,29.723499,26.7966814,29.880693,27.351387C30.037893,27.9060922,30.115585,28.478864700000003,30.115585,29.069707899999997C30.115585,29.6731987,30.037889,30.2532,29.880693,30.807904999999998C29.725649,31.357637,29.503548,31.886200000000002,29.219383,32.381676999999996C28.658888,33.363728,27.882194,34.205303,26.948172,34.842611ZM25.936329999999998,26.717176000000002C26.18929,27.0677071,26.391659,27.4200439,26.541628,27.7759943C26.691596,28.1319447,26.767483,28.5637827,26.767483,29.069703099999998C26.767483,29.552133599999998,26.689791,29.987586999999998,26.532594,30.372446C26.382203,30.747718,26.181622,31.100862,25.936329999999998,31.42223C25.845122,31.54953,25.742291,31.668086000000002,25.629164,31.776374C25.515866000000003,31.880820999999997,25.365755999999998,31.936056,25.211779999999997,31.929957C25.002488,31.933705,24.801471,31.848308,24.65888,31.695065C24.511037,31.545786,24.429616,31.343207,24.433023,31.133133C24.433023,31.03737,24.451093,30.939799,24.48723,30.844034L24.469161,30.844034C24.528787,30.710327,24.602868,30.583849,24.685983,30.464596C24.770906,30.343535,24.852216,30.218863,24.931716,30.092382C25.121685,29.7856064,25.218943,29.4304638,25.211778000000002,29.0697012C25.215259,28.8768568,25.187807,28.684701,25.130468999999998,28.5005417C25.080154,28.3457556,25.013528,28.196756399999998,24.931716,28.0560541C24.85472,27.926456899999998,24.772748999999997,27.7998824,24.685983,27.6766143C24.603365,27.5594053,24.536538999999998,27.4318304,24.48723,27.2971749C24.449731999999997,27.2054844,24.431289,27.1071219,24.433023,27.0080767C24.433023,26.7912545,24.508912000000002,26.6033406,24.65888,26.4461446C24.801471,26.2929015,25.002488,26.2075019,25.211779999999997,26.2112522C25.379818,26.2112522,25.518945000000002,26.2618437,25.627356,26.3648357C25.740396,26.472548500000002,25.843225,26.5904984,25.93452,26.717172599999998L25.936329999999998,26.717176000000002ZM20.0893421,37.467974C18.8141356,36.316366,17.5233192,35.182158,16.2172499,34.065663C15.5288365,33.487468,14.8404255,32.912889,14.1538205,32.345535C14.0216575,32.357562,13.8890185,32.363593,13.7563114,32.363604C13.6479,32.376253,13.5322614,32.381673,13.4130081,32.381673L13.1040357,32.381673C12.80971742,32.393273,12.5231384,32.285806,12.30901864,32.083542C12.10962147,31.899361,11.9973912847,31.639457999999998,12.000046318346,31.368026999999998L12.000046318346,26.8075199L12.018114608,26.8075199L12.000046318346,26.7894511C12.000046318346,26.4515681,12.10484406,26.1751194,12.31624594,25.9582968C12.52098709,25.7430863,12.80707484,25.6243215,13.1040357,25.6312561L14.1339431,25.6312561C15.2451599,24.69169,16.2533865,23.846082,17.1568136,23.098042200000002C17.5348678,22.7788739,17.914915999999998,22.4620667,18.2969398,22.1476362C18.6727657,21.8404713,19.0088415,21.5586007,19.3105869,21.3056414C19.688418900000002,20.98978668,20.068471000000002,20.67659032,20.4507141,20.3660754C20.8120842,20.098661393,21.1066027,19.979408186,21.328846900000002,20.002896551C21.5528965,20.026384916,21.726355599999998,20.13479632,21.852833699999998,20.32813078C21.979314799999997,20.52146518,22.069657,20.75635546,22.116635000000002,21.032805C22.165421000000002,21.3110607,22.18891,21.5658281,22.18891,21.7952992L22.18891,36.454327C22.18891,36.683797999999996,22.147353000000003,36.927723,22.06243,37.18791C21.992148399999998,37.424628999999996,21.8576899,37.637266,21.673955,37.80224C21.4901533,37.955938,21.2499762,38.024839,21.0126457,37.991961C20.747037900000002,37.968469999999996,20.4398718,37.793205,20.091149299999998,37.467972L20.0893421,37.467974Z" fill="#FFFFFF" fill-opacity="1" style="mix-blend-mode:passthrough"/></svg>